<?xml version="1.0" encoding="UTF-8" standalone="no"?>
<svg
   xmlns:dc="http://purl.org/dc/elements/1.1/"
   xmlns:cc="http://creativecommons.org/ns#"
   xmlns:rdf="http://www.w3.org/1999/02/22-rdf-syntax-ns#"
   xmlns:svg="http://www.w3.org/2000/svg"
   xmlns="http://www.w3.org/2000/svg"
   xmlns:sodipodi="http://sodipodi.sourceforge.net/DTD/sodipodi-0.dtd"
   xmlns:inkscape="http://www.inkscape.org/namespaces/inkscape"
   version="1.1"
   id="svg2"
   xml:space="preserve"
   width="733.33331"
   height="493.33334"
   viewBox="0 0 733.33331 493.33334"
   sodipodi:docname="lamaZ.eps"><metadata
     id="metadata8"><rdf:RDF><cc:Work
         rdf:about=""><dc:format>image/svg+xml</dc:format><dc:type
           rdf:resource="http://purl.org/dc/dcmitype/StillImage" /></cc:Work></rdf:RDF></metadata><defs
     id="defs6" /><sodipodi:namedview
     pagecolor="#ffffff"
     bordercolor="#666666"
     borderopacity="1"
     objecttolerance="10"
     gridtolerance="10"
     guidetolerance="10"
     inkscape:pageopacity="0"
     inkscape:pageshadow="2"
     inkscape:window-width="640"
     inkscape:window-height="480"
     id="namedview4" /><g
     id="g10"
     inkscape:groupmode="layer"
     inkscape:label="ink_ext_XXXXXX"
     transform="matrix(1.3333333,0,0,-1.3333333,0,493.33333)"><g
       id="g12"
       transform="scale(0.1)"><path
         d="m 2383.43,1538.98 c -1.85,0.78 -3.64,1.55 -5.36,2.3 6.03,43.54 15.51,103.58 21.32,119.82 6.61,18.51 20.31,45.47 27.51,59.2 19.56,5.56 30.99,11.02 37.96,15.74 -1.58,-11.17 -2.49,-22.77 -1.53,-32.94 3.48,-37.12 49.63,-84.5 61.71,-93.89 5.74,-4.46 9.14,-14.35 12.43,-23.91 1.15,-3.34 2.28,-6.59 3.46,-9.64 5.28,-13.58 29.93,-44.37 45.28,-62.82 H 2407.8 c -6.07,11.64 -14,21.83 -24.37,26.14 z m 340.75,-21.94 c -7.39,11.08 -21.05,17.88 -35.6,24.42 -3.89,4.42 -11.23,17.29 -15.31,24.42 -2.45,4.31 -4.78,8.37 -6.84,11.75 -8.19,13.39 -31.52,57.16 -35.54,67.17 -7.08,17.72 -19.27,62.25 -16.71,74.23 1.59,7.38 13.7,22.39 36.03,44.6 3.23,3.22 5.8,5.8 7.36,7.52 8.99,9.89 23.21,35.77 27.35,43.47 l 2.1,3.9 c 36.62,-2.51 75.54,-5.71 95.19,-7.36 13.71,-26.5 22.28,-37.35 27.27,-42.18 4.6,-10.39 13.98,-45.88 19.14,-65.49 9.42,-35.63 12.21,-45.35 15.9,-51.5 5.63,-9.37 25.73,-52.18 27.74,-60.49 0.33,-1.81 0.87,-5.48 1.58,-10.35 0.05,-0.33 0.1,-0.63 0.14,-0.95 l -2.74,-3.53 c -3.55,-4.59 -15.29,-20.85 -16.49,-37.52 -0.79,-10.92 -1.04,-19.49 -0.93,-26.31 h -127.15 c -0.76,1.44 -1.58,2.84 -2.49,4.2 z m 688.37,1044.92 c -18.3,27.45 -27.44,30.49 -31.83,31.96 -3.34,1.11 -7.4,1.83 -15.51,3.23 -5.24,0.9 -15.96,2.74 -22.4,4.42 -0.71,2.05 -1.46,4.43 -2.07,6.29 -4.41,13.79 -8.97,28.06 -22.56,33.88 -1.41,0.6 -4.5,1.93 -15.63,3.94 2.86,5.47 4.51,10.51 4.93,15.09 1.09,12.12 -3.69,25.32 -12.82,35.31 -8.2,8.97 -18.56,13.92 -29.19,13.92 l -2.18,-0.05 -1.15,-0.11 c -9.6,-0.97 -21.04,-5.62 -28.56,-9.14 -6.24,0.66 -15.53,1.44 -24.27,1.44 -7.43,0 -13.45,-0.56 -18.41,-1.7 -24.28,-5.61 -56.02,-48.11 -57.53,-69.88 -1.9,-12.61 -30.09,-94.64 -39.35,-121.6 -2.85,-8.31 -5.04,-14.65 -6.12,-17.9 -5.25,-15.75 -25.94,-105.43 -25.94,-120.23 0,-6.99 1.37,-17.74 2.58,-25.91 -18.58,-22.88 -20.58,-29.86 -21.47,-33.02 -1.78,-6.19 -1.78,-14.72 -0.04,-25.43 -5.85,-5.46 -11.58,-10.32 -15.14,-12.76 -5.45,0.8 -15.29,2.72 -23.54,4.32 -23.51,4.57 -50.15,9.74 -67.5,9.74 -4.42,0 -8.21,-0.32 -11.58,-1 -15.88,-3.18 -35.9,-9.13 -45.1,-11.97 -22.87,2.84 -116.69,14.47 -130.59,16.21 -14.98,1.87 -138.99,12.05 -157.32,12.05 -14.67,0 -75.8,-12.22 -107.37,-18.73 -15.96,14.54 -49,39.53 -87.66,39.53 -44.42,0 -120.56,-35.85 -131.4,-61.87 -2.64,-6.33 -3.97,-12.64 -5.14,-18.21 -1.18,-5.62 -2.39,-11.43 -4.44,-13.68 -12.1,-13.31 -14.93,-33.61 -13.54,-48.18 0.57,-6.02 1.91,-11.11 4.04,-15.34 0.06,-2.43 0.06,-5.75 0.06,-8.43 0,-23.17 0.76,-40.49 10.61,-52.53 8.7,-10.64 24.3,-18.14 35.63,-22.5 2.26,-6.76 5.12,-16.51 6.97,-27.13 1.32,-7.58 -0.26,-34.58 -1.43,-54.3 -2.77,-47.33 -3.44,-69.41 1.85,-82.25 5.79,-14.05 13.92,-71.96 11.87,-83.26 -2.13,-7 -18.41,-35.44 -28.14,-52.43 -15.99,-27.93 -22.73,-40.06 -25.04,-47.58 -0.19,-0.61 -16.25,-63.11 8.67,-85.55 4.3,-3.88 9.33,-6.72 14.87,-8.47 -10.71,-87.36 -9.87,-94.92 -9.58,-97.56 0.66,-5.9 3.57,-15.98 8.81,-31.75 H 2074.63 V 990 h 1003.14 13.22 211.62 l 35.33,190.74 h -71.01 l 87.83,332.1 h -328.57 c -5.45,8.13 -15.2,15.33 -30.58,26.23 -5.34,3.78 -13.46,9.54 -18,13.38 0.03,2.1 0.1,4.74 0.18,7.67 l 6.52,5.75 c 0.66,0.59 66.85,59.07 82.85,72.77 16.37,14.04 43.87,43.55 50.93,62.35 3.13,8.35 4.49,17.67 5.04,25.23 5.42,6.23 7.97,14.61 7.22,23.71 -0.4,4.77 -1.25,14.36 -29.65,54.4 21.34,2.55 44.6,8.32 55.08,21.11 3.65,4.46 6.36,8.74 8.39,12.68 10.79,3.95 18.68,12.29 21.8,23.67 0.4,1.52 0.74,3.01 1.03,4.47 11.93,3.74 17.85,11.12 20.61,16.08 2.35,4.24 3.93,8.74 5,13.06 10.74,4.26 15.64,11.7 17.83,16.81 1.87,4.37 3.32,10.7 4.4,17.15 12.18,3.94 21.31,12.03 25.62,23.25 3.12,8.1 5.14,16.81 6.75,23.82 0.6,2.65 1.41,6.12 1.96,7.98 0.51,0.71 1.16,1.56 1.87,2.5 10.38,13.83 19.69,27.48 19.69,42.38 0,5.2 0,18.68 0.89,23.35 10.28,21.77 35.75,100.93 40.04,118.69 5.31,22.03 -1.87,51.47 -8.82,79.94 -2.74,11.26 -6.89,28.29 -6.65,32.79 1.52,9.7 2.03,28.43 2.73,58.19 0.57,24.97 1.3,56.05 3.11,66 2.17,11.87 4.61,25.23 6.4,34.89 20.62,7.06 53.71,19.3 66.25,29.15 19.51,15.33 30.69,34.64 30.69,52.98 0,17.3 -10.88,33.88 -12.82,36.69"
         style="fill:#ffffff;fill-opacity:1;fill-rule:nonzero;stroke:none"
         id="path14" /><path
         d="m 3012.75,1985.28 c -4.26,9.72 -8.53,16.7 1.95,22.92 10.49,6.21 20.97,20.58 7.38,19.8 -13.59,-0.77 -25.24,-2.33 -25.24,-2.33 0,0 -22.14,-8.54 -24.09,-16.7 -1.94,-8.15 7,-6.6 6.61,-12.81 -0.39,-6.21 -14.37,-10.49 -10.87,-16.7 3.49,-6.21 8.15,-12.04 3.1,-15.92 -5.05,-3.89 -22.91,-4.28 -26.4,-10.49 -3.5,-6.21 -4.28,-22.52 -10.1,-27.57 -5.83,-5.05 -16.31,-1.17 -14.38,-14.76 1.95,-13.59 6.6,-21.36 11.65,-18.25 5.05,3.11 31.08,25.63 34.96,33.01 3.88,7.38 20.97,-1.17 26.41,7.38 5.44,8.54 -3.89,19.02 0.77,27.96 4.67,8.93 10.88,3.11 16.7,3.11 5.83,0 5.83,11.65 1.55,21.35"
         style="fill:#ffffff;fill-opacity:1;fill-rule:nonzero;stroke:none"
         id="path16" /><path
         d="m 3015.87,1955.77 c 0,0 -12.82,-10.1 -5.83,-13.21 6.99,-3.1 15.15,-3.49 13.59,4.28 -1.55,7.76 -7.76,8.93 -7.76,8.93"
         style="fill:#ffffff;fill-opacity:1;fill-rule:nonzero;stroke:none"
         id="path18" /><path
         d="m 2396.83,1906.84 c -3.89,1.16 -15.93,-18.65 -20.59,-22.14 -4.66,-3.49 -12.04,-5.44 -10.48,3.11 1.55,8.54 19.41,40 19.03,46.99 -0.4,6.99 -12.05,7.76 -2.72,12.81 9.32,5.05 16.31,4.27 16.69,8.16 0.4,3.88 -8.15,11.65 -10.87,9.71 -2.72,-1.94 -9.71,-13.98 -13.59,-10.88 -3.88,3.11 -5.83,10.1 -4.66,15.15 1.17,5.05 5.05,26.41 -0.39,31.07 -5.44,4.66 -17.48,-0.39 -16.31,8.15 1.17,8.55 8.54,15.15 8.54,19.81 0,4.66 -3.88,20.97 -6.99,22.14 -3.1,1.16 -8.54,0 -3.49,6.6 5.04,6.6 -0.39,13.59 -3.11,14.37 -2.72,0.78 -19.03,-3.89 -12.43,-13.59 6.61,-9.72 12.43,-8.55 12.43,-13.6 0,-5.05 -4.66,-14.37 -4.27,-19.42 0.39,-5.05 1.17,-18.25 -0.78,-22.13 -1.94,-3.88 -1.55,-16.7 -0.38,-21.75 1.16,-5.05 3.88,-17.47 -0.78,-25.63 -4.66,-8.16 -0.39,-15.92 2.71,-20.19 3.11,-4.28 4.67,-12.43 3.5,-26.41 -1.17,-13.98 8.15,-83.89 3.11,-95.15 -5.05,-11.27 -33.4,-63.31 -38.45,-67.97 -5.05,-4.65 -8.93,-10.09 -8.93,-10.09 0,0 -5.83,-8.93 -6.22,-15.15 -0.38,-6.21 -3.88,-39.61 3.11,-41.94 6.99,-2.33 15.15,-2.72 16.31,8.93 1.17,11.65 2.33,40.78 7.38,42.72 5.05,1.94 18.26,-6.6 22.52,1.94 4.28,8.55 0,27.97 10.1,26.42 10.1,-1.57 13.21,-12.83 17.48,-7 4.27,5.83 -0.39,11.26 0.39,22.91 0.77,11.66 5.82,9.32 6.6,20.2 0.78,10.87 -3.11,11.65 -3.11,15.92 0,4.28 8.16,14.76 10.88,4.67 2.71,-10.1 -6.99,-26.42 1.94,-21.75 8.93,4.66 8.93,13.2 9.32,19.41 0.39,6.21 -0.39,20.59 -6.6,21.36 -6.22,0.78 -22.53,4.28 -19.03,11.65 3.49,7.38 23.3,6.61 28.74,15.92 5.43,9.32 -2.72,43.5 -6.6,44.67"
         style="fill:#ffffff;fill-opacity:1;fill-rule:nonzero;stroke:none"
         id="path20" /><path
         d="m 3044.6,2009.75 c -4.66,-0.39 -8.93,0 -8.93,0 0,0 -6.99,-8.54 -8.54,-19.8 -1.55,-11.27 3.5,-12.44 5.05,-21.37 1.55,-8.93 -5.44,-18.64 2.32,-22.13 7.78,-3.5 16.32,1.55 15.93,11.65 -0.39,10.1 -2.72,17.48 1.55,22.91 4.27,5.44 4.66,15.54 1.95,20.59 -2.73,5.05 -4.66,8.54 -9.33,8.15"
         style="fill:#ffffff;fill-opacity:1;fill-rule:nonzero;stroke:none"
         id="path22" /><path
         d="m 3138.58,2003.93 c -3.49,1.94 -10.09,11.65 -13.59,6.99 0,0 3.11,-5.83 2.33,-11.27 -0.78,-5.44 -10.09,-5.82 -8.93,-12.04 1.17,-6.21 8.54,-12.81 10.88,-6.99 2.32,5.83 3.1,16.31 5.82,16.7 2.72,0.39 5.05,-3.88 9.32,-3.49 4.27,0.38 10.87,8.93 8.16,10.1 -2.73,1.16 -10.49,-1.95 -13.99,0"
         style="fill:#ffffff;fill-opacity:1;fill-rule:nonzero;stroke:none"
         id="path24" /><path
         d="m 2513.72,1732.85 c 0.78,7.77 3.88,15.54 -1.55,15.92 0,0 -7.77,-1.93 -9.32,-9.32 -1.56,-7.37 -5.05,-32.23 2.33,-34.95 7.37,-2.71 22.52,-4.66 19.8,5.44 -2.72,10.1 -12.04,15.15 -11.26,22.91"
         style="fill:#ffffff;fill-opacity:1;fill-rule:nonzero;stroke:none"
         id="path26" /><path
         d="m 2510.61,1692.85 c 0,0 -2.71,-11.65 3.5,-11.26 6.21,0.38 10.87,5.43 8.54,9.32 -2.33,3.88 -9.32,5.44 -12.04,1.94"
         style="fill:#ffffff;fill-opacity:1;fill-rule:nonzero;stroke:none"
         id="path28" /><path
         d="m 2348.67,1724.31 c 0,0 -9.32,-10.49 -13.21,-17.09 -3.88,-6.6 0.39,-7.38 0.78,-14.76 0.39,-7.37 -9.71,-22.91 0.78,-19.8 10.48,3.1 15.92,7.38 13.2,12.43 -2.72,5.05 -8.15,12.81 -4.27,17.86 3.88,5.05 11.26,2.71 11.26,12.04 0,9.32 -4.66,10.87 -8.54,9.32"
         style="fill:#ffffff;fill-opacity:1;fill-rule:nonzero;stroke:none"
         id="path30" /><path
         d="m 2329.25,1639.65 c 0,0 -9.32,-1.17 -9.71,-10.49 -0.39,-9.32 0,-27.19 -1.94,-34.56 -1.94,-7.38 -4.27,-21.75 -6.6,-26.41 -2.33,-4.66 -6.61,-16.7 0,-18.26 6.6,-1.55 13.98,1.94 12.42,10.1 -1.55,8.16 -2.33,15.93 -0.38,22.14 1.94,6.21 8.93,21.36 8.15,27.19 -0.77,5.82 -4.66,14.36 -2.33,17.47 2.33,3.11 4.66,10.09 0.39,12.82"
         style="fill:#ffffff;fill-opacity:1;fill-rule:nonzero;stroke:none"
         id="path32" /><path
         d="m 2326.92,1660.62 c 0,0 -8.55,-12.05 -1.94,-14.37 6.6,-2.33 12.43,0 13.2,3.89 0.78,3.87 0.78,10.08 -1.94,11.65 -2.72,1.55 -9.32,-1.17 -9.32,-1.17"
         style="fill:#ffffff;fill-opacity:1;fill-rule:nonzero;stroke:none"
         id="path34" /><path
         d="m 3099.37,2007.81 c -6.61,5.05 -15.15,12.81 -21.37,10.1 -1.92,-0.84 -12.03,-1.94 -8.93,-10.88 3.11,-8.93 10.1,-12.82 5.43,-18.25 -4.66,-5.44 -19.02,-7.38 -10.09,-14.76 8.93,-7.38 17.87,-12.43 20.97,-1.16 3.11,11.26 11.65,5.44 15.15,13.98 3.49,8.54 5.44,15.92 -1.16,20.97"
         style="fill:#ffffff;fill-opacity:1;fill-rule:nonzero;stroke:none"
         id="path36" /><path
         d="m 2754.11,2170.14 c -4.66,-4.66 -5.82,5.05 -8.93,7.77 -3.1,2.72 -10.1,-1.55 -17.09,0.39 -6.99,1.94 4.27,12.04 4.27,12.04 0,0 3.89,-2.72 12.82,-4.28 8.93,-1.55 7.77,-6.99 7.77,-6.99 0,0 5.82,-4.27 1.16,-8.93 z m -1.94,-37.67 c -3.88,-1.16 -4.66,-5.43 -10.49,-12.04 -5.82,-6.6 -3.1,4.66 -3.1,7.77 0,3.11 -5.05,5.44 -9.71,5.05 -4.66,-0.39 -6.6,0.39 -6.99,3.49 -0.39,3.11 -5.44,1.95 -10.49,2.72 -5.05,0.78 -1.94,6.99 -1.94,6.99 0,0 3.88,1.94 6.99,4.66 3.11,2.72 6.6,-3.49 9.32,-5.05 2.72,-1.55 7.38,0.78 7.38,4.28 0,3.49 4.27,10.48 7.38,11.65 3.11,1.16 6.6,-1.95 8.16,-5.44 1.55,-3.5 -3.89,-6.6 -6.6,-13.59 -2.72,-6.99 7.37,-3.5 10.87,-3.11 3.49,0.39 3.1,-6.21 -0.78,-7.38 z m -46.99,3.5 c -1.17,-5.44 -15.15,-5.83 -24.08,-6.6 -8.93,-0.78 -21.75,-17.87 -29.13,-13.21 -7.38,4.66 -12.81,7.77 -22.52,8.93 -9.71,1.17 0.77,9.71 3.11,9.71 0,0 11.26,-1.55 18.25,-5.05 6.99,-3.49 5.83,5.44 12.04,10.49 6.21,5.05 7.38,-0.78 12.42,0 5.05,0.78 4.28,10.1 7,13.59 2.72,3.49 3.88,1.56 7.76,-0.78 3.89,-2.33 3.5,-5.82 10.88,-6.6 7.38,-0.78 5.43,-5.05 4.27,-10.48 z m -68.35,40.39 c 5.05,4.66 10.87,-2.72 17.09,-1.95 6.21,0.78 17.86,9.33 17.86,13.98 0,4.67 6.6,8.94 6.6,8.94 4.66,-2.33 0.39,-8.94 1.17,-12.04 0.77,-3.11 6.99,-10.49 6.99,-13.98 0,-3.5 -4.27,-5.44 -9.32,-2.72 -5.05,2.72 -9.32,-10.49 -16.7,-11.65 -7.38,-1.17 -8.16,8.15 -17.87,7.77 -9.71,-0.39 -10.87,6.98 -5.82,11.65 z m -35.34,-22.53 c -8.94,0.39 2.71,10.49 5.43,11.26 0,0 3.5,-11.65 -5.43,-11.26 z m -44.27,12.43 c -7.38,1.55 3.88,11.65 3.88,11.65 0,0 7.77,-0.39 8.15,-4.66 0.39,-4.28 -4.66,-8.54 -12.03,-6.99 z m -20.2,33.4 c -1.17,-3.11 -8.54,-3.88 -14.37,-4.66 -5.82,-0.78 -19.8,-8.16 -26.02,-8.94 -6.21,-0.77 -1.94,6.22 -1.94,6.22 0,0 4.27,9.32 8.54,12.43 4.27,3.1 6.99,-1.56 13.6,-3.5 6.6,-1.94 13.98,5.83 19.02,6.99 5.05,1.17 2.33,-5.44 1.17,-8.54 z m -40,-49.32 c -3.11,-5.44 -6.6,-5.83 -12.82,-1.17 -6.21,4.66 3.11,19.8 3.11,19.8 0,0 6.22,1.95 10.49,-1.16 4.27,-3.1 2.33,-12.04 -0.78,-17.47 z m -25.24,7.76 c -2.33,-1.55 -3.5,-10.87 -2.72,-15.53 0.77,-4.66 -8.93,-17.48 -15.93,-18.25 -6.98,-0.78 3.89,7.76 3.5,15.53 -0.39,7.77 2.33,9.32 5.44,15.54 3.11,6.21 5.43,16.3 5.43,16.3 0,0 7.38,1.95 8.94,-0.77 1.55,-2.72 -2.33,-11.26 -4.66,-12.82 z m 744.86,18.26 c -4.27,3.49 -7.76,10.87 -10.87,10.1 -3.1,-0.79 -5.83,-2.72 -6.21,-6.61 -0.39,-3.88 -28.74,-3.88 -29.9,-2.33 -1.17,1.55 -10.1,4.27 -11.65,0 -1.56,-4.27 -2.73,-9.71 -6.22,-9.32 -3.5,0.39 -24.86,6.6 -23.69,11.65 1.17,5.05 14.76,7.38 12.43,13.98 -2.34,6.6 -5.83,10.88 -0.78,15.54 5.04,4.66 19.03,8.54 21.74,8.93 2.73,0.39 8.17,-2.72 11.27,2.33 3.11,5.05 -3.88,13.2 1.95,17.86 5.82,4.66 17.08,3.89 18.63,-1.16 1.55,-5.05 -12.03,-9.32 -4.66,-13.2 7.38,-3.89 27.96,-6.22 31.85,-1.17 3.88,5.05 0,11.26 -6.21,10.48 -6.21,-0.77 -17.86,0.78 -12.82,5.83 5.05,5.05 17.47,6.21 20.97,11.26 3.5,5.05 13.99,16.7 5.05,15.93 -8.94,-0.78 -37.29,-17.87 -43.5,-16.7 -6.21,1.16 -14.36,6.98 -17.48,-0.39 -3.1,-7.38 -16.7,-25.24 -21.35,-20.98 -4.66,4.28 10.48,15.15 7.77,20.59 -2.73,5.43 -15.54,-6.6 -19.42,1.55 -3.88,8.16 4.27,21.36 10.09,16.31 5.83,-5.05 10.49,-17.08 16.31,-10.48 5.83,6.6 -4.66,24.85 -12.81,23.3 -8.16,-1.55 -19.81,3.1 -12.04,6.6 7.77,3.5 47.77,6.22 47.38,1.17 -0.39,-5.05 -14.37,-19.03 -3.1,-15.15 11.26,3.88 20.96,13.2 22.91,7.77 1.94,-5.44 19.8,-2.34 22.91,3.88 3.11,6.22 11.27,15.92 -0.78,13.98 -12.04,-1.94 -21.74,-2.33 -25.63,1.94 -3.89,4.28 -4.27,9.71 -9.71,6.22 -5.44,-3.5 -12.81,-10.49 -15.92,-7.77 -3.11,2.72 9.71,14.37 4.27,22.53 -5.44,8.15 -14.75,12.03 -12.81,3.1 1.93,-8.93 4.66,-23.3 -1.94,-20.58 -6.61,2.72 -11.27,17.08 -9.71,22.52 1.55,5.44 13.97,15.54 20.58,14.37 6.6,-1.16 14.75,-0.77 14.37,3.5 -0.39,4.27 -0.78,22.91 -2.33,25.24 -1.56,2.33 -12.43,3.89 -12.82,1.55 -0.39,-2.33 3.11,-9.31 3.11,-13.98 0,-4.66 -1.16,-10.48 -10.1,-7.77 -8.93,2.72 -19.03,5.83 -15.54,11.66 3.5,5.82 10.49,16.69 14.38,22.52 3.88,5.83 1.16,-4.27 9.32,-2.72 8.15,1.56 13.59,11.26 10.48,14.76 -3.1,3.5 -12.82,5.83 -8.54,9.32 4.27,3.5 12.42,10.1 8.93,14.37 -3.49,4.27 -15.14,5.44 -14.37,-1.94 0.78,-7.38 -1.94,-15.92 -9.32,-12.43 -7.38,3.5 -20.97,12.82 -13.98,14.37 6.99,1.55 14.36,-4.27 17.09,2.33 2.71,6.6 4.27,19.81 0.77,21.75 -3.5,1.94 -13.2,4.66 -8.54,11.26 4.66,6.6 14.76,12.04 14.76,12.04 0,0 8.93,-10.48 11.65,-1.55 2.72,8.93 1.55,32.62 8.16,36.89 6.6,4.27 15.91,3.88 14.36,11.26 -1.55,7.38 4.28,15.15 6.99,10.87 2.72,-4.26 10.87,-13.97 13.21,-2.71 2.33,11.26 12.43,22.13 1.94,22.91 -10.49,0.78 -34.18,-8.15 -33.4,1.55 0.77,9.71 13.99,27.19 12.04,34.96 -1.94,7.76 -7.77,31.84 -6.6,41.55 1.16,9.71 5.82,19.03 11.26,19.03 5.44,0 12.81,-4.66 16.7,3.11 3.89,7.76 6.99,15.14 5.05,17.86 -1.94,2.72 -6.6,6.99 -10.1,4.66 -3.5,-2.33 -6.99,-14.76 -12.04,-14.37 -5.05,0.39 -7.37,7.77 -15.15,1.94 -7.76,-5.82 -9.31,-18.63 -14.75,-27.18 -5.44,-8.54 -3.89,-19.03 -3.89,-22.91 0,0 -8.93,-24.86 -13.2,-34.18 -4.27,-9.32 -23.69,-73.4 -30.68,-93.98 -6.99,-20.58 -26.41,-82.72 -26.02,-100.98 0.39,-18.25 1.55,-40.38 -3.11,-51.26 -4.66,-10.87 -16.31,-12.81 -14.75,-28.74 1.55,-15.92 -2.72,-27.57 -9.33,-36.11 -6.6,-8.55 -34.17,-27.58 -46.21,-30.3 -12.04,-2.71 -21.75,3.89 -32.24,7.39 -10.47,3.49 -58.64,5.43 -67.56,6.21 -8.94,0.77 -22.14,-4.66 -33.79,-8.55 -11.65,-3.88 -32.24,-1.94 -41.56,0.39 -9.32,2.33 -104.46,10.49 -126.21,16.7 -21.75,6.21 -139.81,9.71 -157.68,7.77 -17.86,-1.94 -81.55,-21.36 -98.25,-19.03 -16.7,2.33 -36.89,34.17 -66.02,42.72 -29.13,8.54 -67.19,-6.99 -78.84,-14.76 -11.65,-7.77 -7.77,-15.53 -13.98,-22.52 -6.21,-7 -12.04,-1.56 -13.98,-12.04 -1.94,-10.49 -3.11,-25.24 -10.1,-33.79 -6.99,-8.54 -11.65,-8.54 -6.21,-17.47 5.43,-8.94 6.99,-22.14 4.66,-31.46 -2.33,-9.33 2.33,-17.87 2.33,-17.87 0,0 5.05,-10.87 13.59,-8.54 8.54,2.33 11.26,3.88 10.49,14.37 -0.78,10.48 -1.95,24.08 -1.95,24.08 0,0 1.56,-5.44 4.28,-1.56 2.72,3.89 2.33,17.09 2.33,17.09 0,0 17.47,0.78 20.97,7.77 3.49,6.99 3.49,15.92 3.49,15.92 0,0 21.75,8.55 24.86,13.59 3.1,5.05 0.39,9.33 0.39,9.33 0,0 -18.25,-8.55 -18.25,-1.95 0,6.6 19.41,17.48 26.79,14.37 7.38,-3.11 21.36,-10.09 27.19,-10.49 5.82,-0.38 6.99,-10.87 13.59,-11.65 6.6,-0.77 17.48,8.94 21.75,6.61 4.27,-2.33 11.65,-4.28 1.94,-10.49 -9.71,-6.21 -17.87,-12.82 -27.96,-12.04 -10.1,0.78 -28.74,-16.7 -25.64,-26.8 0,0 -12.42,-7.37 -12.81,-11.26 -0.39,-3.88 5.43,-5.04 5.43,-10.48 0,-5.44 -10.09,-10.88 -9.7,-17.09 0.38,-6.21 -0.78,-17.09 -3.11,-20.19 -2.33,-3.11 -10.87,-14.37 -6.21,-18.65 4.66,-4.27 8.54,-30.29 6.21,-32.62 -2.33,-2.33 7.77,-17.08 10.1,-18.64 2.33,-1.55 2.33,-20.58 6.6,-26.02 4.27,-5.44 5.44,-14.76 5.05,-19.81 -0.39,-5.05 1.55,-10.48 8.15,-10.87 6.61,-0.39 14.37,-0.39 10.49,-15.15 -3.88,-14.75 3.88,-37.67 10.87,-34.95 6.99,2.72 -1.16,22.14 4.27,32.62 5.44,10.49 10.88,17.09 8.16,24.47 -2.72,7.38 -6.6,14.76 -14.76,13.6 -8.15,-1.17 -19.42,1.55 -11.26,4.27 8.16,2.71 20.2,6.99 20.2,13.98 0,6.99 0,20.97 -3.11,25.24 -3.11,4.27 -9.71,10.88 -3.88,16.7 5.82,5.83 8.93,12.43 5.82,17.09 -3.1,4.66 -3.1,8.15 3.5,13.98 6.6,5.83 10.87,12.81 10.87,12.81 0,0 3.11,-33.4 -1.55,-38.83 -4.66,-5.44 -5.83,-13.59 -3.89,-18.26 1.95,-4.66 -5.05,-22.91 1.17,-25.63 6.21,-2.72 17.86,6.6 20.19,10.49 2.33,3.88 0.39,11.65 1.94,22.53 1.56,10.87 6.6,19.8 9.32,12.42 2.72,-7.38 1.17,-22.52 9.33,-15.53 8.15,6.99 19.41,19.41 22.52,19.41 3.11,0 13.2,-7.37 18.25,1.95 5.05,9.32 12.04,19.8 20.59,27.18 8.54,7.38 13.2,10.87 16.7,10.1 3.49,-0.78 3.88,-12.81 12.42,-5.83 8.55,6.99 10.88,15.93 10.1,22.92 -0.78,6.98 2.33,16.7 1.94,22.13 -0.39,5.44 -5.83,10.1 -3.11,14.76 2.72,4.66 7.38,7.38 8.16,11.65 0.77,4.28 1.17,6.6 -3.88,6.6 -5.05,0 -7.38,-2.72 -8.16,1.94 -0.77,4.67 5.83,11.27 10.49,7.39 4.66,-3.89 10.87,-10.49 10.87,-1.17 0,9.32 -7.38,12.43 -0.39,16.7 6.99,4.27 15.54,1.94 13.21,-4.27 -2.33,-6.22 -11.65,-14.37 -10.88,-21.75 0.78,-7.38 0.39,-19.81 -4.27,-22.53 -4.66,-2.72 -10.87,-7.77 -7.77,-12.81 3.11,-5.05 7.38,-14.37 5.44,-18.26 -1.94,-3.88 -5.44,-11.65 -3.11,-13.2 2.34,-1.55 4.66,-6.6 4.66,-6.6 0,0 -13.59,-3.88 -8.93,-8.55 4.66,-4.65 12.43,-6.21 11.65,-10.87 -0.77,-4.66 -3.49,-10.48 -1.55,-17.48 1.94,-6.99 2.72,-15.53 5.83,-12.81 3.1,2.72 15.14,19.81 18.63,19.03 3.5,-0.78 1.56,-10.1 -0.38,-13.59 -1.94,-3.5 -8.55,-9.33 -6.22,-17.87 2.33,-8.54 14.37,-5.83 17.48,-0.39 3.11,5.44 3.11,14.76 10.1,20.2 6.99,5.43 22.91,-1.17 30.68,-0.78 7.76,0.39 14.76,0.78 12.81,-5.05 -1.94,-5.82 -12.81,-6.21 -15.14,-10.48 -2.33,-4.28 -3.11,-22.14 6.6,-15.15 9.71,6.99 17.47,27.19 21.36,27.57 3.88,0.39 6.6,6.6 5.43,10.1 -1.16,3.5 -6.21,10.1 -0.38,8.94 5.82,-1.17 18.25,-14.76 26.8,-11.66 8.54,3.11 10.09,14.37 16.69,11.66 6.61,-2.72 7.77,-12.04 8.93,-15.54 1.17,-3.5 26.81,-8.93 30.68,-4.27 3.89,4.66 6.61,10.87 10.88,13.59 4.27,2.72 6.6,9.32 5.05,13.59 -1.55,4.28 -12.82,5.05 -10.88,12.04 1.95,6.99 12.43,3.89 12.43,13.98 0,10.1 -5.44,11.65 -6.22,13.98 -0.77,2.33 -3.48,5.83 2.73,11.26 6.21,5.44 19.02,9.33 21.36,3.89 2.33,-5.44 2.33,-11.26 -2.34,-13.98 -4.66,-2.72 -14.36,-12.04 -5.05,-13.21 9.33,-1.16 18.65,-0.38 14.77,-6.98 -3.89,-6.61 -22.92,-7.77 -19.03,-15.15 3.88,-7.38 9.31,-15.92 5.43,-19.81 -3.88,-3.88 -18.25,-3.88 -11.65,-9.32 6.61,-5.44 18.26,-11.26 14.76,-17.86 -3.5,-6.6 -2.33,-12.43 1.16,-18.65 3.5,-6.21 12.04,-5.43 14.76,-1.94 2.72,3.5 13.21,9.71 13.59,16.7 0.39,6.99 0,19.81 -8.54,17.48 -8.55,-2.33 -15.53,0.39 -11.26,4.27 4.27,3.89 20.58,7.38 21.35,13.98 0.79,6.6 -8.54,30.3 -9.7,37.28 -1.16,7 -6.6,22.14 -1.56,24.86 5.05,2.72 11.66,6.21 10.88,9.71 -0.78,3.49 -17.09,14.75 -26.79,15.92 -9.72,1.16 -22.53,-1.55 -28.35,-8.93 -5.83,-7.38 -14.38,-10.88 -16.32,-7.77 -1.94,3.11 3.89,18.64 12.43,21.75 8.55,3.11 21.36,0.39 27.96,4.27 6.6,3.88 11.65,-3.49 20.59,0.78 8.93,4.27 14.75,8.15 20.19,3.5 5.44,-4.67 13.2,-8.55 10.48,-14.38 -2.72,-5.82 -15.14,-14.37 -17.08,-20.19 -1.94,-5.83 -1.17,-13.98 3.1,-19.03 4.27,-5.05 13.6,-18.64 19.03,-13.59 5.44,5.05 6.99,15.14 5.83,21.75 -1.16,6.6 2.33,4.65 6.6,11.65 4.28,6.99 1.94,9.32 4.66,14.75 2.72,5.44 10.88,10.1 12.82,6.6 1.93,-3.49 -1.94,-15.53 -6.6,-19.02 -4.67,-3.5 -6.6,-9.71 -4.67,-15.93 1.94,-6.21 3.12,-15.92 0,-20.58 -3.1,-4.66 -2.32,-10.1 -2.32,-13.98 0,-3.89 -6.22,-8.16 -11.27,-6.99 -5.05,1.17 -6.6,9.32 -7.77,12.82 -1.16,3.49 -4.26,8.54 -8.54,6.21 -4.27,-2.33 -7.37,-7.77 -3.11,-11.65 4.28,-3.88 5.83,-16.31 4.28,-21.36 -1.56,-5.05 -1.94,-22.92 1.16,-27.96 3.11,-5.05 3.5,-13.21 10.49,-15.54 6.98,-2.33 10.48,14.37 17.47,15.93 6.99,1.55 6.21,-7 13.99,-2.34 7.76,4.67 2.71,0.39 8.54,16.32 5.82,15.92 4.27,18.25 3.88,21.35 -0.38,3.11 6.99,17.09 8.15,3.5 1.17,-13.59 6.6,-15.53 10.1,-11.65 3.5,3.89 3.11,14.76 11.27,14.76 8.15,0 16.7,1.16 17.86,8.15 1.16,6.99 -5.83,11.65 -0.39,16.31 5.44,4.67 17.87,11.27 17.87,18.25 0,7 -6.99,19.04 0.38,19.04 7.38,0 10.49,-5.83 7.38,-11.65 -3.1,-5.83 4.66,-21.75 8.16,-22.92 3.49,-1.16 10.88,0 10.1,-6.99 -0.78,-6.99 -6.21,-18.25 -9.32,-22.91 -3.12,-4.66 -3.89,-7.77 -0.78,-15.15 3.1,-7.37 1.55,-12.81 -1.94,-17.47 -3.5,-4.66 -3.89,-12.82 -1.95,-17.09 1.95,-4.27 -5.43,-15.15 0.78,-15.15 6.21,0 20.59,10.1 22.91,16.32 2.34,6.21 -3.1,22.52 3.5,17.86 0,0 5.83,-15.54 10.88,-13.21 5.05,2.33 1.55,18.26 6.21,22.53 4.66,4.27 14.36,4.66 13.2,-5.05 -1.16,-9.71 0.39,-29.51 8.16,-32.62 7.76,-3.11 9.7,1.94 14.36,10.87 4.67,8.94 11.66,12.43 9.72,22.92 -1.94,10.48 -9.33,17.86 -9.33,26.02 0,8.15 -6.6,11.65 -3.49,16.7 3.1,5.04 11.65,-3.11 12.04,-7.77 0.39,-4.66 9.32,-15.93 13.98,-18.25 4.66,-2.33 7.77,-10.49 4.66,-15.15 -3.11,-4.66 -12.43,-6.6 -8.54,-15.15 3.88,-8.54 6.21,-28.35 11.65,-29.51 5.44,-1.17 11.65,4.27 15.53,1.16 3.89,-3.1 18.65,-18.64 24.07,-17.86 5.44,0.78 11.27,5.83 14.38,1.94 3.11,-3.88 19.41,-20.2 24.07,-15.15 4.67,5.05 2.73,8.16 -2.32,14.76 -5.05,6.61 -4.66,10.1 -6.21,18.26 -1.56,8.15 -13.22,10.09 -17.09,12.81 -3.89,2.72 -26.03,-1.94 -31.08,4.66 -5.05,6.6 -10.09,8.16 -10.09,20.97 0,12.82 -3.5,25.63 -5.43,33.4 -1.95,7.77 5.82,26.8 13.97,20.2 8.15,-6.6 6.6,-14.76 15.93,-14.76 9.31,0 39.22,-18.26 41.55,-20.98 2.33,-2.71 13.2,-11.25 24.46,-10.87 11.27,0.39 17.87,-1.94 15.15,5.05 -2.71,6.99 -32.23,33.01 -36.89,33.79 -4.66,0.78 -11.65,-5.05 -18.26,1.94 -6.6,6.99 -27.18,30.68 -33.79,33.79 -6.6,3.1 -18.63,7.76 -13.2,10.48 5.44,2.72 25.25,-8.15 30.69,-12.04 5.43,-3.88 8.15,-12.81 13.98,-3.49 5.82,9.32 1.55,18.64 5.43,21.75 3.89,3.11 11.27,-8.55 20.19,-6.22 8.94,2.33 16.7,1.17 19.04,-3.49 2.32,-4.66 9.7,-9.71 19.41,-1.94 9.71,7.76 15.15,7.37 9.71,13.2 -5.43,5.82 -17.47,4.66 -21.75,8.16"
         style="fill:#ffffff;fill-opacity:1;fill-rule:nonzero;stroke:none"
         id="path38" /><path
         d="m 3228.68,2155 c -9.71,-7.77 -17.09,-2.72 -19.41,1.94 -2.34,4.66 -10.1,5.82 -19.04,3.49 -8.92,-2.33 -16.3,9.33 -20.19,6.22 -3.88,-3.11 0.39,-12.43 -5.43,-21.75 -5.83,-9.32 -8.55,-0.39 -13.98,3.49 -5.44,3.89 -25.25,14.76 -30.69,12.04 -5.43,-2.72 6.6,-7.38 13.2,-10.48 6.61,-3.11 27.19,-26.8 33.79,-33.79 6.61,-6.99 13.6,-1.16 18.26,-1.94 4.66,-0.78 34.18,-26.8 36.89,-33.79 2.72,-6.99 -3.88,-4.66 -15.15,-5.05 -11.26,-0.38 -22.13,8.16 -24.46,10.87 -2.33,2.72 -32.24,20.98 -41.55,20.98 -9.33,0 -7.78,8.16 -15.93,14.76 -8.15,6.6 -15.92,-12.43 -13.97,-20.2 1.93,-7.77 5.43,-20.58 5.43,-33.4 0,-12.81 5.04,-14.37 10.09,-20.97 5.05,-6.6 27.19,-1.94 31.08,-4.66 3.87,-2.72 15.53,-4.66 17.09,-12.81 1.55,-8.16 1.16,-11.65 6.21,-18.26 5.05,-6.6 6.99,-9.71 2.32,-14.76 -4.66,-5.05 -20.96,11.27 -24.07,15.15 -3.11,3.89 -8.94,-1.16 -14.38,-1.94 -5.42,-0.78 -20.18,14.76 -24.07,17.86 -3.88,3.11 -10.09,-2.33 -15.53,-1.16 -5.44,1.16 -7.77,20.97 -11.65,29.51 -3.89,8.55 5.43,10.49 8.54,15.15 3.11,4.66 0,12.82 -4.66,15.15 -4.66,2.32 -13.59,13.59 -13.98,18.25 -0.39,4.66 -8.94,12.81 -12.04,7.77 -3.11,-5.05 3.49,-8.55 3.49,-16.7 0,-8.16 7.39,-15.54 9.33,-26.02 1.94,-10.49 -5.05,-13.98 -9.72,-22.92 -4.66,-8.93 -6.6,-13.98 -14.36,-10.87 -7.77,3.11 -9.32,22.91 -8.16,32.62 1.16,9.71 -8.54,9.32 -13.2,5.05 -4.66,-4.27 -1.16,-20.2 -6.21,-22.53 -5.05,-2.33 -10.88,13.21 -10.88,13.21 -6.6,4.66 -1.16,-11.65 -3.5,-17.86 -2.32,-6.22 -16.7,-16.32 -22.91,-16.32 -6.21,0 1.17,10.88 -0.78,15.15 -1.94,4.27 -1.55,12.43 1.95,17.09 3.49,4.66 5.04,10.1 1.94,17.47 -3.11,7.38 -2.34,10.49 0.78,15.15 3.11,4.66 8.54,15.92 9.32,22.91 0.78,6.99 -6.61,5.83 -10.1,6.99 -3.5,1.17 -11.26,17.09 -8.16,22.92 3.11,5.82 0,11.65 -7.38,11.65 -7.37,0 -0.38,-12.04 -0.38,-19.04 0,-6.98 -12.43,-13.58 -17.87,-18.25 -5.44,-4.66 1.55,-9.32 0.39,-16.31 -1.16,-6.99 -9.71,-8.15 -17.86,-8.15 -8.16,0 -7.77,-10.87 -11.27,-14.76 -3.5,-3.88 -8.93,-1.94 -10.1,11.65 -1.16,13.59 -8.53,-0.39 -8.15,-3.5 0.39,-3.1 1.94,-5.43 -3.88,-21.35 -5.83,-15.93 -0.78,-11.65 -8.54,-16.32 -7.78,-4.66 -7,3.89 -13.99,2.34 -6.99,-1.56 -10.49,-18.26 -17.47,-15.93 -6.99,2.33 -7.38,10.49 -10.49,15.54 -3.1,5.04 -2.72,22.91 -1.16,27.96 1.55,5.05 0,17.48 -4.28,21.36 -4.26,3.88 -1.16,9.32 3.11,11.65 4.28,2.33 7.38,-2.72 8.54,-6.21 1.17,-3.5 2.72,-11.65 7.77,-12.82 5.05,-1.17 11.27,3.1 11.27,6.99 0,3.88 -0.78,9.32 2.32,13.98 3.12,4.66 1.94,14.37 0,20.58 -1.93,6.22 0,12.43 4.67,15.93 4.66,3.49 8.53,15.53 6.6,19.02 -1.94,3.5 -10.1,-1.16 -12.82,-6.6 -2.72,-5.43 -0.38,-7.76 -4.66,-14.75 -4.27,-7 -7.76,-5.05 -6.6,-11.65 1.16,-6.61 -0.39,-16.7 -5.83,-21.75 -5.43,-5.05 -14.76,8.54 -19.03,13.59 -4.27,5.05 -5.04,13.2 -3.1,19.03 1.94,5.82 14.36,14.37 17.08,20.19 2.72,5.83 -5.04,9.71 -10.48,14.38 -5.44,4.65 -11.26,0.77 -20.19,-3.5 -8.94,-4.27 -13.99,3.1 -20.59,-0.78 -6.6,-3.88 -19.41,-1.16 -27.96,-4.27 -8.54,-3.11 -14.37,-18.64 -12.43,-21.75 1.94,-3.11 10.49,0.39 16.32,7.77 5.82,7.38 18.63,10.09 28.35,8.93 9.7,-1.17 26.01,-12.43 26.79,-15.92 0.78,-3.5 -5.83,-6.99 -10.88,-9.71 -5.04,-2.72 0.4,-17.86 1.56,-24.86 1.16,-6.98 10.49,-30.68 9.7,-37.28 -0.77,-6.6 -17.08,-10.09 -21.35,-13.98 -4.27,-3.88 2.71,-6.6 11.26,-4.27 8.54,2.33 8.93,-10.49 8.54,-17.48 -0.38,-6.99 -10.87,-13.2 -13.59,-16.7 -2.72,-3.49 -11.26,-4.27 -14.76,1.94 -3.49,6.22 -4.66,12.05 -1.16,18.65 3.5,6.6 -8.15,12.42 -14.76,17.86 -6.6,5.44 7.77,5.44 11.65,9.32 3.88,3.89 -1.55,12.43 -5.43,19.81 -3.89,7.38 15.14,8.54 19.03,15.15 3.88,6.6 -5.44,5.82 -14.77,6.98 -9.31,1.17 0.39,10.49 5.05,13.21 4.67,2.72 4.67,8.54 2.34,13.98 -2.34,5.44 -15.15,1.55 -21.36,-3.89 -6.21,-5.43 -3.5,-8.93 -2.73,-11.26 0.78,-2.33 6.22,-3.88 6.22,-13.98 0,-10.09 -10.48,-6.99 -12.43,-13.98 -1.94,-6.99 9.33,-7.76 10.88,-12.04 1.55,-4.27 -0.78,-10.87 -5.05,-13.59 -4.27,-2.72 -6.99,-8.93 -10.88,-13.59 -3.87,-4.66 -29.51,0.77 -30.68,4.27 -1.16,3.5 -2.32,12.82 -8.93,15.54 -6.6,2.71 -8.15,-8.55 -16.69,-11.66 -8.55,-3.1 -20.98,10.49 -26.8,11.66 -5.83,1.16 -0.78,-5.44 0.38,-8.94 1.17,-3.5 -1.55,-9.71 -5.43,-10.1 -3.89,-0.38 -11.65,-20.58 -21.36,-27.57 -9.71,-6.99 -8.93,10.87 -6.6,15.15 2.33,4.27 13.2,4.66 15.14,10.48 1.95,5.83 -5.05,5.44 -12.81,5.05 -7.77,-0.39 -23.69,6.21 -30.68,0.78 -6.99,-5.44 -6.99,-14.76 -10.1,-20.2 -3.11,-5.44 -15.15,-8.15 -17.48,0.39 -2.33,8.54 4.28,14.37 6.22,17.87 1.94,3.49 3.88,12.81 0.38,13.59 -3.49,0.78 -15.53,-16.31 -18.63,-19.03 -3.11,-2.72 -3.89,5.82 -5.83,12.81 -1.94,7 0.78,12.82 1.55,17.48 0.78,4.66 -6.99,6.22 -11.65,10.87 -4.66,4.67 8.93,8.55 8.93,8.55 0,0 -2.32,5.05 -4.66,6.6 -2.33,1.55 1.17,9.32 3.11,13.2 1.94,3.89 -2.33,13.21 -5.44,18.26 -3.1,5.04 3.11,10.09 7.77,12.81 4.66,2.72 5.05,15.15 4.27,22.53 -0.77,7.38 8.55,15.53 10.88,21.75 2.33,6.21 -6.22,8.54 -13.21,4.27 -6.99,-4.27 0.39,-7.38 0.39,-16.7 0,-9.32 -6.21,-2.72 -10.87,1.17 -4.66,3.88 -11.26,-2.72 -10.49,-7.39 0.78,-4.66 3.11,-1.94 8.16,-1.94 5.05,0 4.65,-2.32 3.88,-6.6 -0.78,-4.27 -5.44,-6.99 -8.16,-11.65 -2.72,-4.66 2.72,-9.32 3.11,-14.76 0.39,-5.43 -2.72,-15.15 -1.94,-22.13 0.78,-6.99 -1.55,-15.93 -10.1,-22.92 -8.54,-6.98 -8.93,5.05 -12.42,5.83 -3.5,0.77 -8.16,-2.72 -16.7,-10.1 -8.55,-7.38 -15.54,-17.86 -20.59,-27.18 -5.05,-9.32 -15.14,-1.95 -18.25,-1.95 -3.11,0 -14.37,-12.42 -22.52,-19.41 -8.16,-6.99 -6.61,8.15 -9.33,15.53 -2.72,7.38 -7.76,-1.55 -9.32,-12.42 -1.55,-10.88 0.39,-18.65 -1.94,-22.53 -2.33,-3.89 -13.98,-13.21 -20.19,-10.49 -6.22,2.72 0.78,20.97 -1.17,25.63 -1.94,4.67 -0.77,12.82 3.89,18.26 4.66,5.43 1.55,38.83 1.55,38.83 0,0 -4.27,-6.98 -10.87,-12.81 -6.6,-5.83 -6.6,-9.32 -3.5,-13.98 3.11,-4.66 0,-11.26 -5.82,-17.09 -5.83,-5.82 0.77,-12.43 3.88,-16.7 3.11,-4.27 3.11,-18.25 3.11,-25.24 0,-6.99 -12.04,-11.27 -20.2,-13.98 -8.16,-2.72 3.11,-5.44 11.26,-4.27 8.16,1.16 12.04,-6.22 14.76,-13.6 2.72,-7.38 -2.72,-13.98 -8.16,-24.47 -5.43,-10.48 2.72,-29.9 -4.27,-32.62 -6.99,-2.72 -14.75,20.2 -10.87,34.95 3.88,14.76 -3.88,14.76 -10.49,15.15 -6.6,0.39 -8.54,5.82 -8.15,10.87 0.39,5.05 -0.78,14.37 -5.05,19.81 -4.27,5.44 -4.27,24.47 -6.6,26.02 -2.33,1.56 -12.43,16.31 -10.1,18.64 2.33,2.33 -1.55,28.35 -6.21,32.62 -4.66,4.28 3.88,15.54 6.21,18.65 2.33,3.1 3.49,13.98 3.11,20.19 -0.39,6.21 9.7,11.65 9.7,17.09 0,5.44 -5.82,6.6 -5.43,10.48 0.39,3.89 12.81,11.26 12.81,11.26 -3.1,10.1 15.54,27.58 25.64,26.8 10.09,-0.78 18.25,5.83 27.96,12.04 9.71,6.21 2.33,8.16 -1.94,10.49 -4.27,2.33 -15.15,-7.38 -21.75,-6.61 -6.6,0.78 -7.77,11.27 -13.59,11.65 -5.83,0.4 -19.81,7.38 -27.19,10.49 -7.38,3.11 -26.79,-7.77 -26.79,-14.37 0,-6.6 18.25,1.95 18.25,1.95 0,0 2.71,-4.28 -0.39,-9.33 -3.11,-5.04 -24.86,-13.59 -24.86,-13.59 0,0 0,-8.93 -3.49,-15.92 -3.5,-6.99 -20.97,-7.77 -20.97,-7.77 0,0 0.39,-13.2 -2.33,-17.09 -2.72,-3.88 -4.28,1.56 -4.28,1.56 0,0 1.17,-13.6 1.95,-24.08 0.77,-10.49 -1.95,-12.04 -10.49,-14.37 -8.54,-2.33 -13.59,8.54 -13.59,8.54 0,0 -4.66,8.54 -2.33,17.87 2.33,9.32 0.77,22.52 -4.66,31.46 -5.44,8.93 -0.78,8.93 6.21,17.47 6.99,8.55 8.16,23.3 10.1,33.79 1.94,10.48 7.77,5.04 13.98,12.04 6.21,6.99 2.33,14.75 13.98,22.52 11.65,7.77 49.71,23.3 78.84,14.76 29.13,-8.55 49.32,-40.39 66.02,-42.72 16.7,-2.33 80.39,17.09 98.25,19.03 17.87,1.94 135.93,-1.56 157.68,-7.77 21.75,-6.21 116.89,-14.37 126.21,-16.7 9.32,-2.33 29.91,-4.27 41.56,-0.39 11.65,3.89 24.85,9.32 33.79,8.55 8.92,-0.78 57.09,-2.72 67.56,-6.21 10.49,-3.5 20.2,-10.1 32.24,-7.39 12.04,2.72 39.61,21.75 46.21,30.3 6.61,8.54 10.88,20.19 9.33,36.11 -1.56,15.93 10.09,17.87 14.75,28.74 4.66,10.88 3.5,33.01 3.11,51.26 -0.39,18.26 19.03,80.4 26.02,100.98 6.99,20.58 26.41,84.66 30.68,93.98 4.27,9.32 13.2,34.18 13.2,34.18 0,3.88 -1.55,14.37 3.89,22.91 5.44,8.55 6.99,21.36 14.75,27.18 7.78,5.83 10.1,-1.55 15.15,-1.94 5.05,-0.39 8.54,12.04 12.04,14.37 3.5,2.33 8.16,-1.94 10.1,-4.66 1.94,-2.72 -1.16,-10.1 -5.05,-17.86 -3.89,-7.77 -11.26,-3.11 -16.7,-3.11 -5.44,0 -10.1,-9.32 -11.26,-19.03 -1.17,-9.71 4.66,-33.79 6.6,-41.55 1.95,-7.77 -11.27,-25.25 -12.04,-34.96 -0.78,-9.7 22.91,-0.77 33.4,-1.55 10.49,-0.78 0.39,-11.65 -1.94,-22.91 -2.34,-11.26 -10.49,-1.55 -13.21,2.71 -2.71,4.28 -8.54,-3.49 -6.99,-10.87 1.55,-7.38 -7.76,-6.99 -14.36,-11.26 -6.61,-4.27 -5.44,-27.96 -8.16,-36.89 -2.72,-8.93 -11.65,1.55 -11.65,1.55 0,0 -10.1,-5.44 -14.76,-12.04 -4.66,-6.6 5.04,-9.32 8.54,-11.26 3.5,-1.94 1.94,-15.15 -0.77,-21.75 -2.73,-6.6 -10.1,-0.78 -17.09,-2.33 -6.99,-1.55 6.6,-10.87 13.98,-14.37 7.38,-3.49 10.1,5.05 9.32,12.43 -0.77,7.38 10.88,6.21 14.37,1.94 3.49,-4.27 -4.66,-10.87 -8.93,-14.37 -4.28,-3.49 5.44,-5.82 8.54,-9.32 3.11,-3.5 -2.33,-13.2 -10.48,-14.76 -8.16,-1.55 -5.44,8.55 -9.32,2.72 -3.89,-5.83 -10.88,-16.7 -14.38,-22.52 -3.49,-5.83 6.61,-8.94 15.54,-11.66 8.94,-2.71 10.1,3.11 10.1,7.77 0,4.67 -3.5,11.65 -3.11,13.98 0.39,2.34 11.26,0.78 12.82,-1.55 1.55,-2.33 1.94,-20.97 2.33,-25.24 0.38,-4.27 -7.77,-4.66 -14.37,-3.5 -6.61,1.17 -19.03,-8.93 -20.58,-14.37 -1.56,-5.44 3.1,-19.8 9.71,-22.52 6.6,-2.72 3.87,11.65 1.94,20.58 -1.94,8.93 7.37,5.05 12.81,-3.1 5.44,-8.16 -7.38,-19.81 -4.27,-22.53 3.11,-2.72 10.48,4.27 15.92,7.77 5.44,3.49 5.82,-1.94 9.71,-6.22 3.89,-4.27 13.59,-3.88 25.63,-1.94 12.05,1.94 3.89,-7.76 0.78,-13.98 -3.11,-6.22 -20.97,-9.32 -22.91,-3.88 -1.95,5.43 -11.65,-3.89 -22.91,-7.77 -11.27,-3.88 2.71,10.1 3.1,15.15 0.39,5.05 -39.61,2.33 -47.38,-1.17 -7.77,-3.5 3.88,-8.15 12.04,-6.6 8.15,1.55 18.64,-16.7 12.81,-23.3 -5.82,-6.6 -10.48,5.43 -16.31,10.48 -5.82,5.05 -13.97,-8.15 -10.09,-16.31 3.88,-8.15 16.69,3.88 19.42,-1.55 2.71,-5.44 -12.43,-16.31 -7.77,-20.59 4.65,-4.26 18.25,13.6 21.35,20.98 3.12,7.37 11.27,1.55 17.48,0.39 6.21,-1.17 34.56,15.92 43.5,16.7 8.94,0.77 -1.55,-10.88 -5.05,-15.93 -3.5,-5.05 -15.92,-6.21 -20.97,-11.26 -5.04,-5.05 6.61,-6.6 12.82,-5.83 6.21,0.78 10.09,-5.43 6.21,-10.48 -3.89,-5.05 -24.47,-2.72 -31.85,1.17 -7.37,3.88 6.21,8.15 4.66,13.2 -1.55,5.05 -12.81,5.82 -18.63,1.16 -5.83,-4.66 1.16,-12.81 -1.95,-17.86 -3.1,-5.05 -8.54,-1.94 -11.27,-2.33 -2.71,-0.39 -16.7,-4.27 -21.74,-8.93 -5.05,-4.66 -1.56,-8.94 0.78,-15.54 2.33,-6.6 -11.26,-8.93 -12.43,-13.98 -1.17,-5.05 20.19,-11.26 23.69,-11.65 3.49,-0.39 4.66,5.05 6.22,9.32 1.55,4.27 10.48,1.55 11.65,0 1.16,-1.55 29.51,-1.55 29.9,2.33 0.38,3.89 3.11,5.82 6.21,6.61 3.11,0.77 6.6,-6.61 10.87,-10.1 4.28,-3.5 16.32,-2.34 21.75,-8.16 5.44,-5.83 0,-5.44 -9.71,-13.2 z m -84.27,-161.17 c -4.27,-0.39 -6.6,3.88 -9.32,3.49 -2.72,-0.39 -3.5,-10.87 -5.82,-16.7 -2.34,-5.82 -9.71,0.78 -10.88,6.99 -1.16,6.22 8.15,6.6 8.93,12.04 0.78,5.44 -2.33,11.27 -2.33,11.27 3.5,4.66 10.1,-5.05 13.59,-6.99 3.5,-1.95 11.26,1.16 13.99,0 2.71,-1.17 -3.89,-9.72 -8.16,-10.1 z m -43.88,-6.99 c -3.5,-8.54 -12.04,-2.72 -15.15,-13.98 -3.1,-11.27 -12.04,-6.22 -20.97,1.16 -8.93,7.38 5.43,9.32 10.09,14.76 4.67,5.43 -2.32,9.32 -5.43,18.25 -3.1,8.94 7.01,10.04 8.93,10.88 6.22,2.71 14.76,-5.05 21.37,-10.1 6.6,-5.05 4.65,-12.43 1.16,-20.97 z m -48.55,-5.83 c -4.27,-5.43 -1.94,-12.81 -1.55,-22.91 0.39,-10.1 -8.15,-15.15 -15.93,-11.65 -7.76,3.49 -0.77,13.2 -2.32,22.13 -1.55,8.93 -6.6,10.1 -5.05,21.37 1.55,11.26 8.54,19.8 8.54,19.8 0,0 4.27,-0.39 8.93,0 4.67,0.39 6.6,-3.1 9.33,-8.15 2.71,-5.05 2.32,-15.15 -1.95,-20.59 z m -41.94,-38.45 c -6.99,3.11 5.83,13.21 5.83,13.21 0,0 6.21,-1.17 7.76,-8.93 1.56,-7.77 -6.6,-7.38 -13.59,-4.28 z m -15.54,18.26 c -4.66,-8.94 4.67,-19.42 -0.77,-27.96 -5.44,-8.55 -22.53,0 -26.41,-7.38 -3.88,-7.38 -29.91,-29.9 -34.96,-33.01 -5.05,-3.11 -9.7,4.66 -11.65,18.25 -1.93,13.59 8.55,9.71 14.38,14.76 5.82,5.05 6.6,21.36 10.1,27.57 3.49,6.21 21.35,6.6 26.4,10.49 5.05,3.88 0.39,9.71 -3.1,15.92 -3.5,6.21 10.48,10.49 10.87,16.7 0.39,6.21 -8.55,4.66 -6.61,12.81 1.95,8.16 24.09,16.7 24.09,16.7 0,0 11.65,1.56 25.24,2.33 13.59,0.78 3.11,-13.59 -7.38,-19.8 -10.48,-6.22 -6.21,-13.2 -1.95,-22.92 4.28,-9.7 4.28,-21.35 -1.55,-21.35 -5.82,0 -12.03,5.82 -16.7,-3.11 z m -591.07,-98.65 c -5.44,-9.31 -25.25,-8.54 -28.74,-15.92 -3.5,-7.37 12.81,-10.87 19.03,-11.65 6.21,-0.77 6.99,-15.15 6.6,-21.36 -0.39,-6.21 -0.39,-14.75 -9.32,-19.41 -8.93,-4.67 0.77,11.65 -1.94,21.75 -2.72,10.09 -10.88,-0.39 -10.88,-4.67 0,-4.27 3.89,-5.05 3.11,-15.92 -0.78,-10.88 -5.83,-8.54 -6.6,-20.2 -0.78,-11.65 3.88,-17.08 -0.39,-22.91 -4.27,-5.83 -7.38,5.43 -17.48,7 -10.1,1.55 -5.82,-17.87 -10.1,-26.42 -4.26,-8.54 -17.47,0 -22.52,-1.94 -5.05,-1.94 -6.21,-31.07 -7.38,-42.72 -1.16,-11.65 -9.32,-11.26 -16.31,-8.93 -6.99,2.33 -3.49,35.73 -3.11,41.94 0.39,6.22 6.22,15.15 6.22,15.15 0,0 3.88,5.44 8.93,10.09 5.05,4.66 33.4,56.7 38.45,67.97 5.04,11.26 -4.28,81.17 -3.11,95.15 1.17,13.98 -0.39,22.13 -3.5,26.41 -3.1,4.27 -7.37,12.03 -2.71,20.19 4.66,8.16 1.94,20.58 0.78,25.63 -1.17,5.05 -1.56,17.87 0.38,21.75 1.95,3.88 1.17,17.08 0.78,22.13 -0.39,5.05 4.27,14.37 4.27,19.42 0,5.05 -5.82,3.88 -12.43,13.6 -6.6,9.7 9.71,14.37 12.43,13.59 2.72,-0.78 8.15,-7.77 3.11,-14.37 -5.05,-6.6 0.39,-5.44 3.49,-6.6 3.11,-1.17 6.99,-17.48 6.99,-22.14 0,-4.66 -7.37,-11.26 -8.54,-19.81 -1.17,-8.54 10.87,-3.49 16.31,-8.15 5.44,-4.66 1.56,-26.02 0.39,-31.07 -1.17,-5.05 0.78,-12.04 4.66,-15.15 3.88,-3.1 10.87,8.94 13.59,10.88 2.72,1.94 11.27,-5.83 10.87,-9.71 -0.38,-3.89 -7.37,-3.11 -16.69,-8.16 -9.33,-5.05 2.32,-5.82 2.72,-12.81 0.38,-6.99 -17.48,-38.45 -19.03,-46.99 -1.56,-8.55 5.82,-6.6 10.48,-3.11 4.66,3.49 16.7,23.3 20.59,22.14 3.88,-1.17 12.03,-35.35 6.6,-44.67 z m -57.48,-159.22 c -3.88,-5.05 1.55,-12.81 4.27,-17.86 2.72,-5.05 -2.72,-9.33 -13.2,-12.43 -10.49,-3.11 -0.39,12.43 -0.78,19.8 -0.39,7.38 -4.66,8.16 -0.78,14.76 3.89,6.6 13.21,17.09 13.21,17.09 3.88,1.55 8.54,0 8.54,-9.32 0,-9.33 -7.38,-6.99 -11.26,-12.04 z m -7.77,-52.81 c -0.77,-3.89 -6.6,-6.22 -13.2,-3.89 -6.61,2.32 1.94,14.37 1.94,14.37 0,0 6.6,2.72 9.32,1.17 2.72,-1.57 2.72,-7.78 1.94,-11.65 z m -6.99,-40.78 c 0.78,-5.83 -6.21,-20.98 -8.15,-27.19 -1.95,-6.21 -1.17,-13.98 0.38,-22.14 1.56,-8.16 -5.82,-11.65 -12.42,-10.1 -6.61,1.56 -2.33,13.6 0,18.26 2.33,4.66 4.66,19.03 6.6,26.41 1.94,7.37 1.55,25.24 1.94,34.56 0.39,9.32 9.71,10.49 9.71,10.49 4.27,-2.73 1.94,-9.71 -0.39,-12.82 -2.33,-3.11 1.56,-11.65 2.33,-17.47 z m 1042.16,962.44 c -5.94,1.98 -41.57,5.94 -47.52,11.88 -5.94,5.94 -9.89,33.66 -16.83,36.63 -6.93,2.97 -50.48,7.92 -50.48,7.92 0,0 24.74,23.76 25.74,34.65 0.98,10.89 -9.9,24.75 -19.81,23.76 -9.89,-0.99 -26.73,-9.9 -26.73,-9.9 0,0 -28.71,3.96 -41.58,0.99 -12.86,-2.97 -38.6,-35.64 -39.59,-49.5 -0.99,-13.86 -40.59,-126.72 -46.53,-144.54 -5.94,-17.82 -24.75,-102.96 -24.75,-112.86 0,-9.89 3.96,-32.67 3.96,-32.67 0,0 -21.78,-25.73 -23.76,-32.66 -1.98,-6.94 2.97,-26.74 2.97,-26.74 0,0 -26.73,-27.72 -36.63,-28.7 -9.9,-0.99 -82.17,17.82 -101.97,13.86 -19.8,-3.96 -47.52,-12.88 -47.52,-12.88 0,0 -119.78,14.86 -135.63,16.84 -15.84,1.98 -138.59,11.88 -154.43,11.88 -15.84,0 -114.84,-20.8 -114.84,-20.8 0,0 -37.62,41.59 -80.19,41.59 -42.57,0 -104.94,-35.64 -109.89,-47.52 -4.95,-11.88 -3.96,-27.72 -13.85,-38.61 -9.91,-10.89 -8.91,-35.64 -4.95,-38.61 3.96,-2.97 -1.99,-44.55 6.92,-55.44 8.92,-10.89 35.64,-18.81 35.64,-18.81 0,0 7.92,-18.81 11.88,-41.58 3.96,-22.77 -7.92,-114.84 -0.99,-131.66 6.94,-16.84 16.83,-82.18 12.87,-98.02 -3.96,-15.84 -49.49,-88.1 -53.45,-100.97 -3.96,-12.87 -7.92,-52.47 1.97,-61.38 9.91,-8.91 25.75,-1.98 25.75,-1.98 0,0 -13.87,-109.89 -12.88,-118.8 1,-8.91 14.85,-47.52 17.82,-56.43 2.98,-8.9 54.45,-22.77 54.45,-22.77 l 27.72,10.89 c 0,0 -9.9,33.66 -21.78,38.61 -11.88,4.95 -21.77,9.9 -21.77,9.9 0,0 14.84,113.85 24.74,141.57 9.9,27.72 33.66,71.27 33.66,71.27 0,0 39.6,9.91 44.55,18.81 4.95,8.92 7.92,12.87 7.92,12.87 0,0 2.97,-14.84 10.89,-6.92 7.92,7.92 24.75,53.46 24.75,53.46 0,0 76.23,24.74 107.91,26.73 31.68,1.97 190.08,-11.89 190.08,-11.89 0,0 20.79,-42.57 29.69,-48.5 8.91,-5.94 31.68,-110.88 37.62,-120.79 5.94,-9.89 28.71,-57.41 30.7,-68.3 1.98,-10.89 10.88,-83.16 20.79,-97.02 9.89,-13.86 34.64,-25.74 34.64,-25.74 l 37.62,-4.95 3.96,12.87 14.85,-8.91 c 0,0 6.93,16.83 0,27.72 -6.93,10.89 -50.49,34.65 -52.47,44.55 -1.98,9.9 7.92,162.36 11.88,181.17 3.96,18.81 20.8,74.25 27.72,81.17 6.93,6.94 48.51,-3.95 60.39,1.99 11.88,5.93 31.68,17.82 31.68,17.82 0,0 42.57,2.97 51.47,13.86 8.92,10.88 8.92,18.8 8.92,18.8 0,0 13.86,-1.97 16.83,8.91 2.97,10.89 0,19.8 0,19.8 0,0 18.81,-2.96 23.76,5.94 4.95,8.91 3.96,21.78 3.96,21.78 0,0 14.84,-0.99 17.81,5.94 2.97,6.94 4.95,28.71 4.95,28.71 0,0 19.81,-1.97 24.76,10.89 4.94,12.87 6.92,29.7 9.89,34.65 2.97,4.95 18.81,22.77 18.81,33.66 0,10.89 0,28.71 2.98,32.67 2.97,3.96 31.67,86.13 38.6,114.84 6.94,28.71 -18.8,92.07 -15.84,110.88 2.97,18.8 1.99,102.95 5.94,124.73 3.97,21.78 8.92,48.51 8.92,48.51 0,0 58.41,18.81 72.26,29.7 13.86,10.89 21.78,23.76 21.78,34.65 0,10.89 -8.91,23.76 -8.91,23.76 0,0 -13.85,20.79 -19.8,22.77"
         style="fill:#100f0d;fill-opacity:1;fill-rule:nonzero;stroke:none"
         id="path40" /><path
         d="m 2505.18,1704.5 c -7.38,2.72 -3.89,27.58 -2.33,34.95 1.55,7.39 9.32,9.32 9.32,9.32 5.43,-0.38 2.33,-8.15 1.55,-15.92 -0.78,-7.76 8.54,-12.81 11.26,-22.91 2.72,-10.1 -12.43,-8.15 -19.8,-5.44 z m 8.93,-22.91 c -6.21,-0.39 -3.5,11.26 -3.5,11.26 2.72,3.5 9.71,1.94 12.04,-1.94 2.33,-3.89 -2.33,-8.94 -8.54,-9.32 z m 162.72,-160.39 c -8.54,3.88 -21.75,30.29 -30.29,44.27 -8.55,13.98 -32.62,59.03 -37.29,70.68 -4.66,11.65 -22.52,66.02 -17.86,87.77 4.66,21.74 41.17,54.37 48.93,62.92 7.77,8.54 24.08,38.83 24.08,38.83 0,0 -42.72,4.66 -61.36,4.66 -18.64,0 -91.65,-24.08 -91.65,-24.08 0,0 -13.98,-25.63 -14.76,-31.06 -0.78,-5.44 -12.43,-45.05 -10.1,-69.91 2.33,-24.86 38.84,-66.8 52.82,-77.67 13.98,-10.88 17.87,-29.51 23.3,-43.5 5.44,-13.98 48.16,-64.46 53.6,-70.68 5.43,-6.21 44.27,-31.85 61.36,-34.95 17.08,-3.11 33.4,6.99 33.4,6.99 0,0 -1.56,11.65 -6.22,18.64 -4.66,6.99 -19.42,13.2 -27.96,17.09"
         style="fill:#100f0d;fill-opacity:1;fill-rule:nonzero;stroke:none"
         id="path42" /><path
         d="m 3048.88,1789.94 c -10.88,0.77 -48.94,7.77 -48.94,7.77 l -22.52,-66.8 22.52,-28.74 -28.74,-58.25 -2.32,-60.59 c 0,0 66.79,59.03 83.1,73.02 16.31,13.97 39.61,40.39 44.27,52.81 4.67,12.43 3.89,30.29 3.89,30.29 0,0 7.76,-0.77 6.99,8.55 -0.78,9.31 -32.63,52.81 -32.63,52.81 0,0 -14.75,-11.65 -25.62,-10.87"
         style="fill:#100f0d;fill-opacity:1;fill-rule:nonzero;stroke:none"
         id="path44" /><path
         d="m 2878,1537.51 c -0.78,-10.88 -1.55,-35.73 0.78,-38.84 2.32,-3.1 13.97,0 13.97,0 l 7,17.09 -10.1,46.6 c 0,0 -10.87,-13.98 -11.65,-24.85"
         style="fill:#100f0d;fill-opacity:1;fill-rule:nonzero;stroke:none"
         id="path46" /><path
         d="m 2535.85,2208.2 c -5.04,-1.16 -12.42,-8.93 -19.02,-6.99 -6.61,1.94 -9.33,6.6 -13.6,3.5 -4.27,-3.11 -8.54,-12.43 -8.54,-12.43 0,0 -4.27,-6.99 1.94,-6.22 6.22,0.78 20.2,8.16 26.02,8.94 5.83,0.78 13.2,1.55 14.37,4.66 1.16,3.1 3.88,9.71 -1.17,8.54"
         style="fill:#100f0d;fill-opacity:1;fill-rule:nonzero;stroke:none"
         id="path48" /><path
         d="m 2487.31,2168.97 c 0,0 -9.32,-15.14 -3.11,-19.8 6.22,-4.66 9.71,-4.27 12.82,1.17 3.11,5.43 5.05,14.37 0.78,17.47 -4.27,3.11 -10.49,1.16 -10.49,1.16"
         style="fill:#100f0d;fill-opacity:1;fill-rule:nonzero;stroke:none"
         id="path50" /><path
         d="m 2467.5,2171.69 c 0,0 -2.32,-10.09 -5.43,-16.3 -3.11,-6.22 -5.83,-7.77 -5.44,-15.54 0.39,-7.77 -10.48,-16.31 -3.5,-15.53 7,0.77 16.7,13.59 15.93,18.25 -0.78,4.66 0.39,13.98 2.72,15.53 2.33,1.56 6.21,10.1 4.66,12.82 -1.56,2.72 -8.94,0.77 -8.94,0.77"
         style="fill:#100f0d;fill-opacity:1;fill-rule:nonzero;stroke:none"
         id="path52" /><path
         d="m 2561.1,2177.91 c 0,0 -11.26,-10.1 -3.88,-11.65 7.37,-1.55 12.42,2.71 12.03,6.99 -0.38,4.27 -8.15,4.66 -8.15,4.66"
         style="fill:#100f0d;fill-opacity:1;fill-rule:nonzero;stroke:none"
         id="path54" /><path
         d="m 2642.65,2164.71 c 9.71,0.38 10.49,-8.94 17.87,-7.77 7.38,1.16 11.65,14.37 16.7,11.65 5.05,-2.72 9.32,-0.78 9.32,2.72 0,3.49 -6.22,10.87 -6.99,13.98 -0.78,3.1 3.49,9.71 -1.17,12.04 0,0 -6.6,-4.27 -6.6,-8.94 0,-4.65 -11.65,-13.2 -17.86,-13.98 -6.22,-0.77 -12.04,6.61 -17.09,1.95 -5.05,-4.67 -3.89,-12.04 5.82,-11.65"
         style="fill:#100f0d;fill-opacity:1;fill-rule:nonzero;stroke:none"
         id="path56" /><path
         d="m 2601.49,2153.83 c 8.93,-0.39 5.43,11.26 5.43,11.26 -2.72,-0.77 -14.37,-10.87 -5.43,-11.26"
         style="fill:#100f0d;fill-opacity:1;fill-rule:nonzero;stroke:none"
         id="path58" /><path
         d="m 2700.91,2146.45 c -7.38,0.78 -6.99,4.27 -10.88,6.6 -3.88,2.34 -5.04,4.27 -7.76,0.78 -2.72,-3.49 -1.95,-12.81 -7,-13.59 -5.04,-0.78 -6.21,5.05 -12.42,0 -6.21,-5.05 -5.05,-13.98 -12.04,-10.49 -6.99,3.5 -18.25,5.05 -18.25,5.05 -2.34,0 -12.82,-8.54 -3.11,-9.71 9.71,-1.16 15.14,-4.27 22.52,-8.93 7.38,-4.66 20.2,12.43 29.13,13.21 8.93,0.77 22.91,1.16 24.08,6.6 1.16,5.43 3.11,9.7 -4.27,10.48"
         style="fill:#100f0d;fill-opacity:1;fill-rule:nonzero;stroke:none"
         id="path60" /><path
         d="m 2752.95,2139.85 c -3.5,-0.39 -13.59,-3.88 -10.87,3.11 2.71,6.99 8.15,10.09 6.6,13.59 -1.56,3.49 -5.05,6.6 -8.16,5.44 -3.11,-1.17 -7.38,-8.16 -7.38,-11.65 0,-3.5 -4.66,-5.83 -7.38,-4.28 -2.72,1.56 -6.21,7.77 -9.32,5.05 -3.11,-2.72 -6.99,-4.66 -6.99,-4.66 0,0 -3.11,-6.21 1.94,-6.99 5.05,-0.77 10.1,0.39 10.49,-2.72 0.39,-3.1 2.33,-3.88 6.99,-3.49 4.66,0.39 9.71,-1.94 9.71,-5.05 0,-3.11 -2.72,-14.37 3.1,-7.77 5.83,6.61 6.61,10.88 10.49,12.04 3.88,1.17 4.27,7.77 0.78,7.38"
         style="fill:#100f0d;fill-opacity:1;fill-rule:nonzero;stroke:none"
         id="path62" /><path
         d="m 2752.95,2179.07 c 0,0 1.16,5.44 -7.77,6.99 -8.93,1.56 -12.82,4.28 -12.82,4.28 0,0 -11.26,-10.1 -4.27,-12.04 6.99,-1.94 13.99,2.33 17.09,-0.39 3.11,-2.72 4.27,-12.43 8.93,-7.77 4.66,4.66 -1.16,8.93 -1.16,8.93"
         style="fill:#100f0d;fill-opacity:1;fill-rule:nonzero;stroke:none"
         id="path64" /><path
         d="M 3324.47,1489.53 H 2097.93 v -476.22 h 1185.29 l 26.7,144.13 h -73.26 l 87.81,332.09"
         style="fill:#100f0d;fill-opacity:1;fill-rule:nonzero;stroke:none"
         id="path66" /><path
         d="m 2132.01,1455.46 v -130.25 h 83.86 v 130.25 h -83.86"
         style="fill:#ffffff;fill-opacity:1;fill-rule:nonzero;stroke:none"
         id="path68" /><path
         d="m 2132.01,1047.38 h 151.97 l 14.08,75.99 h -82.19 v 201.84 h -83.86 v -277.83"
         style="fill:#ffffff;fill-opacity:1;fill-rule:nonzero;stroke:none"
         id="path70" /><path
         d="m 2140.52,1055.9 v 260.8 h 66.84 v -201.85 h 80.46 l -10.93,-58.95 h -136.37"
         style="fill:#cfcecd;fill-opacity:1;fill-rule:nonzero;stroke:none"
         id="path72" /><path
         d="m 2388.66,1455.46 -23.53,-130.25 h 134.31 l -23.53,130.25 h -87.25"
         style="fill:#ffffff;fill-opacity:1;fill-rule:nonzero;stroke:none"
         id="path74" /><path
         d="m 2432.56,1307.42 18.58,-144.65 h -37.71 z m -117.64,-260.04 h 82.19 l 7.31,50.66 h 55.73 l 7.32,-50.66 h 82.17 l -50.2,277.83 h -134.31 l -50.21,-277.83"
         style="fill:#ffffff;fill-opacity:1;fill-rule:nonzero;stroke:none"
         id="path76" /><path
         d="m 2403.71,1154.26 h 57.12 l -19.82,154.25 -16.89,0.03 z m 71.13,-98.36 -7.32,50.65 h -70.47 l -7.32,-50.65 h -64.61 l 47.12,260.8 h 120.09 l 47.12,-260.8 h -64.61"
         style="fill:#cfcecd;fill-opacity:1;fill-rule:nonzero;stroke:none"
         id="path78" /><path
         d="m 2658.27,1455.46 h -86.13 v -130.25 h 119.75 l -33.62,130.25"
         style="fill:#ffffff;fill-opacity:1;fill-rule:nonzero;stroke:none"
         id="path80" /><path
         d="m 2702.73,1283.22 -10.84,41.99 h -119.75 v -277.83 h 79.37 v 192.5 l 51.22,-163.23 51.79,163.23 v -192.5 h 79.37 v 277.83 h -120.32 l -10.84,-41.99"
         style="fill:#ffffff;fill-opacity:1;fill-rule:nonzero;stroke:none"
         id="path82" /><path
         d="m 2763.04,1055.9 v 183.98 l -16.64,2.58 -43.62,-137.51 -43.14,137.49 -16.64,-2.56 V 1055.9 h -62.34 v 260.8 h 104.64 l 17.43,-67.55 17.44,67.55 h 105.19 v -260.8 h -62.32"
         style="fill:#cfcecd;fill-opacity:1;fill-rule:nonzero;stroke:none"
         id="path84" /><path
         d="m 2747.2,1455.46 -33.63,-130.25 h 120.32 v 130.25 h -86.69"
         style="fill:#ffffff;fill-opacity:1;fill-rule:nonzero;stroke:none"
         id="path86" /><path
         d="m 3017.36,1455.46 h -87.24 l -23.54,-130.25 h 134.32 l -23.54,130.25"
         style="fill:#ffffff;fill-opacity:1;fill-rule:nonzero;stroke:none"
         id="path88" /><path
         d="m 2954.88,1162.77 19.14,144.65 18.58,-144.65 z m 86.02,162.44 h -134.32 l -50.2,-277.83 h 82.17 l 7.33,50.66 h 55.72 l 7.32,-50.66 h 73.74 l 5.09,18.48 -46.85,259.35"
         style="fill:#ffffff;fill-opacity:1;fill-rule:nonzero;stroke:none"
         id="path90" /><path
         d="m 2945.17,1154.26 h 57.11 l -19.81,154.25 -16.88,0.03 z m 71.13,-98.36 -7.32,50.65 h -70.47 l -7.33,-50.65 h -64.61 l 47.12,260.8 h 120.09 l 45.25,-250.45 -2.86,-10.35 h -59.87"
         style="fill:#cfcecd;fill-opacity:1;fill-rule:nonzero;stroke:none"
         id="path92" /><path
         d="m 3280.22,1455.46 h -176.74 l -14.08,-75.99 h 84.99 l -14.98,-54.26 h 86.38 l 34.43,130.25"
         style="fill:#ffffff;fill-opacity:1;fill-rule:nonzero;stroke:none"
         id="path94" /><path
         d="m 3245.79,1325.21 h -86.38 l -71.66,-259.35 3.34,-18.48 h 163.8 l 14.07,75.99 h -76.55 l 53.38,201.84"
         style="fill:#ffffff;fill-opacity:1;fill-rule:nonzero;stroke:none"
         id="path96" /><path
         d="m 3098.21,1055.9 -1.73,9.55 69.41,251.25 h 68.84 l -53.38,-201.85 h 77.37 l -10.92,-58.95 h -149.59"
         style="fill:#cfcecd;fill-opacity:1;fill-rule:nonzero;stroke:none"
         id="path98" /><path
         d="m 3082.66,1047.38 h 8.43 l -3.34,18.48 z"
         style="fill:#ffffff;fill-opacity:1;fill-rule:nonzero;stroke:none"
         id="path100" /></g></g></svg>
